<svg id="svg" version="1.1" xmlns="http://www.w3.org/2000/svg" xmlns:xlink="http://www.w3.org/1999/xlink" width="400" height="125" viewBox="0, 0, 400,125"><g id="svgg"><path id="path0" d="M277.833 35.109 C 277.696 35.160,276.421 36.385,275.000 37.831 C 272.609 40.264,264.453 48.673,263.500 49.686 C 263.271 49.930,262.790 50.435,262.432 50.807 C 261.383 51.898,261.609 52.000,265.062 51.998 L 267.917 51.997 268.665 51.402 C 269.076 51.075,270.100 50.157,270.940 49.362 C 271.781 48.567,272.607 47.801,272.776 47.660 C 273.257 47.257,274.785 45.904,276.323 44.518 C 277.096 43.820,278.184 42.840,278.739 42.339 C 279.295 41.838,279.925 41.268,280.138 41.072 C 280.662 40.592,281.665 40.762,282.300 41.438 C 282.547 41.702,283.460 42.555,284.328 43.334 C 285.196 44.113,286.026 44.862,286.172 45.000 C 286.319 45.137,286.912 45.663,287.490 46.167 C 288.856 47.358,292.023 50.237,293.000 51.177 C 293.829 51.974,293.951 52.000,296.839 52.000 C 298.977 52.000,299.676 51.946,299.926 51.761 C 300.291 51.492,300.562 51.838,297.500 48.675 C 296.721 47.870,294.358 45.425,292.250 43.241 C 290.142 41.058,287.500 38.329,286.379 37.177 L 284.341 35.083 281.212 35.050 C 279.491 35.031,277.971 35.058,277.833 35.109 M101.875 36.164 L 101.500 36.323 101.500 40.891 C 101.500 46.273,101.662 45.876,99.411 46.005 C 97.304 46.126,97.333 46.090,97.333 48.586 C 97.333 50.990,97.207 50.846,99.439 50.993 C 101.725 51.143,101.498 50.070,101.512 60.812 C 101.519 65.957,101.596 70.491,101.685 71.000 C 101.773 71.504,101.922 72.507,102.015 73.229 C 102.323 75.625,104.283 78.556,105.833 78.941 C 106.063 78.998,106.662 79.241,107.167 79.480 L 108.083 79.917 113.303 79.969 C 119.579 80.032,119.000 80.284,119.000 77.485 C 119.000 74.846,119.324 75.055,115.083 74.962 C 110.033 74.851,108.305 74.164,107.958 72.127 C 107.875 71.644,107.769 66.815,107.722 61.395 L 107.636 51.540 108.022 51.270 C 108.357 51.035,109.074 51.000,113.504 51.000 C 119.558 51.000,119.000 51.257,119.000 48.473 C 119.000 45.767,119.539 46.000,113.287 46.000 C 108.588 46.000,108.198 45.978,107.942 45.695 C 107.700 45.427,107.667 44.843,107.667 40.872 C 107.667 37.440,107.617 36.321,107.458 36.218 C 107.157 36.023,102.320 35.977,101.875 36.164 M195.875 36.164 L 195.500 36.323 195.500 40.891 C 195.500 46.273,195.662 45.876,193.411 46.005 C 191.304 46.126,191.333 46.090,191.333 48.586 C 191.333 50.990,191.207 50.846,193.439 50.993 C 195.725 51.143,195.498 50.070,195.512 60.812 C 195.519 65.957,195.596 70.491,195.685 71.000 C 195.773 71.504,195.922 72.507,196.015 73.229 C 196.323 75.625,198.283 78.556,199.833 78.941 C 200.063 78.998,200.662 79.241,201.167 79.480 L 202.083 79.917 207.303 79.969 C 213.579 80.032,213.000 80.284,213.000 77.485 C 213.000 74.846,213.324 75.055,209.083 74.962 C 204.033 74.851,202.305 74.164,201.958 72.127 C 201.875 71.644,201.769 66.815,201.722 61.395 L 201.636 51.540 202.022 51.270 C 202.357 51.035,203.074 51.000,207.504 51.000 C 213.558 51.000,213.000 51.257,213.000 48.473 C 213.000 45.767,213.539 46.000,207.287 46.000 C 202.588 46.000,202.198 45.978,201.942 45.695 C 201.700 45.427,201.667 44.843,201.667 40.872 C 201.667 37.440,201.617 36.321,201.458 36.218 C 201.157 36.023,196.320 35.977,195.875 36.164 M135.917 45.139 C 135.458 45.201,134.816 45.409,134.490 45.601 C 134.164 45.793,133.602 46.004,133.240 46.070 C 132.879 46.135,132.304 46.372,131.962 46.595 C 131.620 46.818,131.271 47.000,131.186 47.000 C 130.980 47.000,129.075 48.514,128.275 49.314 C 127.459 50.130,126.000 51.986,126.000 52.208 C 126.000 52.306,125.817 52.626,125.592 52.920 C 125.368 53.214,125.134 53.671,125.073 53.936 C 125.011 54.200,124.787 54.721,124.576 55.093 C 124.350 55.488,124.142 56.214,124.074 56.843 C 124.009 57.433,123.898 57.992,123.827 58.083 C 123.052 59.076,122.875 65.481,123.565 67.554 C 123.784 68.212,124.018 69.160,124.086 69.661 C 124.153 70.162,124.386 70.854,124.604 71.199 C 124.822 71.544,125.000 71.922,125.000 72.038 C 125.000 72.270,126.006 73.956,126.667 74.830 C 127.843 76.388,130.915 79.000,131.570 79.000 C 131.702 79.000,131.912 79.103,132.038 79.228 C 132.392 79.582,133.186 79.944,133.890 80.071 C 134.241 80.135,134.841 80.351,135.223 80.552 C 136.664 81.310,146.283 81.141,147.794 80.331 C 148.134 80.149,148.645 80.000,148.931 80.000 C 149.535 80.000,150.474 79.710,150.833 79.412 C 150.971 79.299,151.508 79.084,152.027 78.936 C 153.604 78.485,153.833 78.070,153.833 75.668 C 153.833 72.944,153.380 72.502,151.685 73.572 C 151.332 73.794,150.753 74.031,150.399 74.098 C 150.044 74.164,149.383 74.391,148.928 74.601 C 148.474 74.812,147.685 75.028,147.176 75.082 C 146.667 75.135,145.650 75.286,144.917 75.417 C 141.536 76.019,141.651 76.011,140.090 75.738 C 139.269 75.594,138.535 75.438,138.459 75.392 C 138.384 75.345,137.829 75.237,137.226 75.151 C 136.623 75.066,135.931 74.856,135.690 74.684 C 135.448 74.512,134.987 74.258,134.667 74.119 C 134.131 73.888,132.000 71.950,132.000 71.694 C 132.000 71.633,131.812 71.365,131.582 71.098 C 131.353 70.831,131.091 70.344,131.001 70.015 C 130.911 69.686,130.676 69.154,130.478 68.833 C 130.228 68.426,130.050 67.696,129.890 66.417 C 129.553 63.714,128.064 64.000,142.485 64.000 C 151.686 64.000,154.648 63.952,154.800 63.800 C 155.346 63.254,154.993 56.865,154.338 55.426 C 154.152 55.019,154.000 54.466,154.000 54.199 C 154.000 53.932,153.825 53.456,153.612 53.141 C 153.398 52.826,153.138 52.324,153.034 52.026 C 152.930 51.727,152.674 51.259,152.464 50.985 C 151.304 49.465,150.113 48.160,149.592 47.838 C 149.266 47.637,149.000 47.404,149.000 47.320 C 149.000 47.236,148.899 47.167,148.775 47.167 C 148.651 47.167,148.251 46.950,147.887 46.686 C 147.522 46.422,146.975 46.151,146.672 46.085 C 146.370 46.018,145.738 45.770,145.269 45.533 C 144.377 45.083,138.248 44.825,135.917 45.139 M170.333 45.148 C 169.829 45.214,168.950 45.471,168.380 45.718 C 167.810 45.965,167.204 46.167,167.034 46.167 C 166.864 46.167,166.549 46.354,166.333 46.583 C 166.118 46.813,165.851 47.000,165.740 47.000 C 164.904 47.000,162.442 50.007,162.056 51.500 C 161.950 51.913,161.745 52.663,161.600 53.167 C 161.211 54.525,161.262 56.029,161.750 57.567 C 161.979 58.289,162.167 58.980,162.167 59.102 C 162.167 59.645,163.836 61.639,164.942 62.417 C 165.810 63.027,167.833 64.000,168.232 64.000 C 168.449 64.000,169.043 64.191,169.551 64.423 C 170.075 64.663,171.010 64.907,171.708 64.985 C 172.386 65.061,173.119 65.219,173.338 65.336 C 173.872 65.622,175.308 65.996,175.882 65.998 C 176.138 65.999,176.828 66.225,177.417 66.500 C 178.005 66.775,178.597 67.000,178.733 67.000 C 178.869 67.000,179.341 67.308,179.782 67.685 C 182.454 69.967,181.267 74.353,177.768 75.124 C 173.504 76.063,173.793 76.032,171.880 75.748 C 170.907 75.604,170.040 75.441,169.952 75.387 C 169.863 75.332,169.144 75.222,168.354 75.142 C 167.440 75.050,166.613 74.853,166.083 74.602 C 165.625 74.384,164.999 74.160,164.693 74.104 C 164.387 74.048,163.754 73.811,163.288 73.576 C 162.737 73.299,162.231 73.168,161.845 73.200 L 161.250 73.250 161.204 76.027 L 161.159 78.805 161.675 79.172 C 162.285 79.607,163.507 80.000,164.247 80.000 C 164.538 80.000,165.332 80.206,166.013 80.458 L 167.250 80.917 172.833 80.917 L 178.417 80.917 179.333 80.479 C 179.838 80.239,180.524 79.993,180.858 79.933 C 181.193 79.874,181.643 79.688,181.858 79.520 C 182.074 79.353,182.531 79.084,182.874 78.923 C 183.543 78.609,186.000 76.280,186.000 75.960 C 186.000 75.854,186.183 75.501,186.408 75.176 C 186.774 74.643,186.995 73.857,187.505 71.275 C 187.625 70.666,187.599 70.174,187.400 69.275 C 187.254 68.620,187.073 67.737,186.998 67.315 C 186.854 66.509,185.680 64.519,184.980 63.896 C 184.215 63.215,182.792 62.304,182.126 62.069 C 181.756 61.938,181.220 61.690,180.935 61.517 C 180.650 61.344,180.079 61.147,179.667 61.080 C 179.254 61.013,178.537 60.790,178.072 60.585 C 177.608 60.380,176.708 60.156,176.072 60.088 C 175.437 60.020,174.467 59.792,173.917 59.580 C 173.367 59.368,172.528 59.149,172.052 59.093 C 167.580 58.567,165.648 54.006,168.920 51.700 C 170.618 50.503,175.214 49.847,177.907 50.417 C 178.543 50.552,179.870 50.775,180.856 50.912 C 181.973 51.068,182.918 51.303,183.364 51.536 C 185.245 52.516,185.833 52.020,185.833 49.454 L 185.833 47.448 185.182 46.829 C 184.648 46.320,184.362 46.188,183.597 46.092 C 183.084 46.028,182.196 45.783,181.624 45.547 C 180.526 45.096,172.803 44.822,170.333 45.148 M241.262 48.262 C 241.041 48.483,241.000 49.062,241.000 52.000 C 241.000 54.938,241.041 55.517,241.262 55.738 C 241.632 56.108,247.395 56.129,247.762 55.762 C 248.219 55.305,248.100 48.589,247.630 48.259 C 247.081 47.875,241.647 47.877,241.262 48.262 M142.856 50.725 C 143.929 51.030,145.034 51.457,145.329 51.680 C 146.428 52.511,147.969 54.222,148.070 54.723 C 148.125 54.999,148.357 55.620,148.585 56.102 C 149.035 57.053,149.147 58.453,148.800 58.800 C 148.432 59.168,130.455 59.079,130.127 58.708 C 129.784 58.320,130.023 56.504,130.506 55.825 C 130.693 55.563,130.926 55.117,131.025 54.834 C 131.330 53.960,133.186 52.008,133.725 51.995 C 133.831 51.993,134.211 51.768,134.571 51.495 C 134.931 51.223,135.381 50.998,135.571 50.996 C 135.761 50.994,136.592 50.813,137.417 50.594 C 139.509 50.040,140.531 50.064,142.856 50.725 M241.262 72.262 C 241.041 72.483,241.000 73.062,241.000 76.000 C 241.000 78.938,241.041 79.517,241.262 79.738 C 241.632 80.108,247.395 80.129,247.762 79.762 C 248.219 79.305,248.100 72.589,247.630 72.259 C 247.081 71.875,241.647 71.877,241.262 72.262 " stroke="none" fill="#f4f4f4" fill-rule="evenodd"></path><path id="path1" d="M274.611 31.611 C 274.550 31.672,274.500 31.892,274.500 32.100 C 274.500 32.388,274.391 32.490,274.042 32.531 C 273.685 32.572,273.572 32.682,273.532 33.032 C 273.492 33.378,273.378 33.492,273.032 33.532 C 272.685 33.572,272.572 33.685,272.532 34.032 C 272.492 34.378,272.378 34.492,272.032 34.532 C 271.685 34.572,271.572 34.685,271.532 35.032 C 271.492 35.378,271.378 35.492,271.032 35.532 C 270.685 35.572,270.572 35.685,270.532 36.032 C 270.492 36.378,270.378 36.492,270.032 36.532 C 269.685 36.572,269.572 36.685,269.532 37.032 C 269.492 37.378,269.378 37.492,269.032 37.532 C 268.685 37.572,268.572 37.685,268.532 38.032 C 268.492 38.378,268.378 38.492,268.032 38.532 C 267.685 38.572,267.572 38.685,267.532 39.032 C 267.492 39.378,267.378 39.492,267.032 39.532 C 266.685 39.572,266.572 39.685,266.532 40.032 C 266.492 40.378,266.378 40.492,266.032 40.532 C 265.685 40.572,265.572 40.685,265.532 41.032 C 265.492 41.378,265.378 41.492,265.032 41.532 C 264.685 41.572,264.572 41.685,264.532 42.032 C 264.492 42.378,264.378 42.492,264.032 42.532 C 263.685 42.572,263.572 42.685,263.532 43.032 C 263.492 43.378,263.378 43.492,263.032 43.532 C 262.685 43.572,262.572 43.685,262.532 44.032 C 262.492 44.378,262.378 44.492,262.032 44.532 C 261.685 44.572,261.572 44.685,261.532 45.032 C 261.492 45.378,261.378 45.492,261.032 45.532 C 260.685 45.572,260.572 45.685,260.532 46.032 C 260.492 46.378,260.378 46.492,260.032 46.532 C 259.682 46.572,259.572 46.685,259.531 47.042 C 259.502 47.294,259.376 47.500,259.251 47.500 C 258.580 47.500,258.500 47.900,258.500 51.262 L 258.500 54.500 259.000 54.500 C 259.444 54.500,259.500 54.556,259.500 55.000 L 259.500 55.500 265.500 55.500 L 271.500 55.500 271.500 55.000 C 271.500 54.556,271.556 54.500,272.000 54.500 C 272.444 54.500,272.500 54.444,272.500 54.000 C 272.500 53.556,272.556 53.500,273.000 53.500 C 273.444 53.500,273.500 53.444,273.500 53.000 C 273.500 52.556,273.556 52.500,274.000 52.500 C 274.444 52.500,274.500 52.444,274.500 52.000 C 274.500 51.556,274.556 51.500,275.000 51.500 C 275.444 51.500,275.500 51.444,275.500 51.000 C 275.500 50.556,275.556 50.500,276.000 50.500 C 276.444 50.500,276.500 50.444,276.500 50.000 C 276.500 49.556,276.556 49.500,277.000 49.500 C 277.444 49.500,277.500 49.444,277.500 49.000 C 277.500 48.556,277.556 48.500,278.000 48.500 C 278.444 48.500,278.500 48.444,278.500 48.000 L 278.500 47.500 279.500 47.500 L 280.500 47.500 280.500 47.000 C 280.500 46.556,280.556 46.500,281.000 46.500 C 281.444 46.500,281.500 46.556,281.500 47.000 C 281.500 47.444,281.556 47.500,282.000 47.500 C 282.444 47.500,282.500 47.556,282.500 48.000 L 282.500 48.500 283.500 48.500 L 284.500 48.500 284.500 49.000 C 284.500 49.444,284.556 49.500,285.000 49.500 C 285.444 49.500,285.500 49.556,285.500 50.000 C 285.500 50.444,285.556 50.500,286.000 50.500 C 286.444 50.500,286.500 50.556,286.500 51.000 C 286.500 51.444,286.556 51.500,287.000 51.500 C 287.444 51.500,287.500 51.556,287.500 52.000 C 287.500 52.444,287.556 52.500,288.000 52.500 C 288.444 52.500,288.500 52.556,288.500 53.000 C 288.500 53.444,288.556 53.500,289.000 53.500 C 289.444 53.500,289.500 53.556,289.500 54.000 C 289.500 54.444,289.556 54.500,290.000 54.500 C 290.444 54.500,290.500 54.556,290.500 55.000 L 290.500 55.500 296.500 55.500 L 302.500 55.500 302.500 55.000 C 302.500 54.556,302.556 54.500,303.000 54.500 L 303.500 54.500 303.500 51.500 L 303.500 48.500 303.000 48.500 C 302.556 48.500,302.500 48.444,302.500 48.000 C 302.500 47.556,302.444 47.500,302.000 47.500 C 301.505 47.500,301.500 47.491,301.500 46.579 C 301.500 45.693,301.481 45.655,301.009 45.560 C 300.634 45.485,300.506 45.358,300.468 45.023 C 300.428 44.683,300.313 44.571,299.958 44.531 C 299.574 44.486,299.500 44.398,299.500 43.989 C 299.500 43.557,299.442 43.500,299.000 43.500 C 298.556 43.500,298.500 43.444,298.500 43.000 C 298.500 42.556,298.444 42.500,298.000 42.500 C 297.556 42.500,297.500 42.444,297.500 42.000 C 297.500 41.556,297.444 41.500,297.000 41.500 C 296.556 41.500,296.500 41.444,296.500 41.000 C 296.500 40.556,296.444 40.500,296.000 40.500 C 295.556 40.500,295.500 40.444,295.500 40.000 C 295.500 39.556,295.444 39.500,295.000 39.500 C 294.556 39.500,294.500 39.444,294.500 39.000 C 294.500 38.556,294.444 38.500,294.000 38.500 C 293.556 38.500,293.500 38.444,293.500 38.000 C 293.500 37.556,293.444 37.500,293.000 37.500 C 292.556 37.500,292.500 37.444,292.500 37.000 C 292.500 36.556,292.444 36.500,292.000 36.500 C 291.556 36.500,291.500 36.444,291.500 36.000 C 291.500 35.556,291.444 35.500,291.000 35.500 C 290.556 35.500,290.500 35.444,290.500 35.000 C 290.500 34.556,290.444 34.500,290.000 34.500 C 289.556 34.500,289.500 34.444,289.500 34.000 C 289.500 33.556,289.444 33.500,289.000 33.500 C 288.556 33.500,288.500 33.444,288.500 33.000 C 288.500 32.556,288.444 32.500,288.000 32.500 C 287.556 32.500,287.500 32.444,287.500 32.000 L 287.500 31.500 281.111 31.500 C 277.597 31.500,274.672 31.550,274.611 31.611 M98.611 32.611 C 98.550 32.672,98.500 32.892,98.500 33.100 C 98.500 33.388,98.391 33.490,98.042 33.531 L 97.583 33.583 97.539 38.035 L 97.495 42.487 96.039 42.535 C 94.597 42.583,94.583 42.587,94.532 43.032 C 94.492 43.378,94.378 43.492,94.032 43.532 L 93.583 43.583 93.539 48.542 L 93.495 53.500 93.998 53.500 C 94.445 53.500,94.500 53.555,94.500 54.000 L 94.500 54.500 96.000 54.500 L 97.500 54.500 97.500 64.000 L 97.500 73.500 97.996 73.500 L 98.491 73.500 98.537 75.958 L 98.583 78.417 99.042 78.469 C 99.426 78.514,99.500 78.602,99.500 79.011 C 99.500 79.443,99.558 79.500,100.000 79.500 C 100.444 79.500,100.500 79.556,100.500 80.000 C 100.500 80.444,100.556 80.500,101.000 80.500 C 101.444 80.500,101.500 80.556,101.500 81.000 C 101.500 81.444,101.556 81.500,102.000 81.500 C 102.444 81.500,102.500 81.556,102.500 82.000 L 102.500 82.500 103.500 82.500 L 104.500 82.500 104.500 83.000 L 104.500 83.500 113.000 83.500 L 121.500 83.500 121.500 83.000 C 121.500 82.556,121.556 82.500,122.000 82.500 L 122.500 82.500 122.500 80.000 L 122.500 77.500 123.000 77.500 C 123.444 77.500,123.500 77.556,123.500 78.000 C 123.500 78.444,123.556 78.500,124.000 78.500 C 124.444 78.500,124.500 78.556,124.500 79.000 C 124.500 79.444,124.556 79.500,125.000 79.500 C 125.444 79.500,125.500 79.556,125.500 80.000 C 125.500 80.444,125.556 80.500,126.000 80.500 C 126.444 80.500,126.500 80.556,126.500 81.000 C 126.500 81.444,126.556 81.500,127.000 81.500 C 127.444 81.500,127.500 81.556,127.500 82.000 L 127.500 82.500 128.500 82.500 L 129.500 82.500 129.500 83.000 L 129.500 83.500 131.000 83.500 L 132.500 83.500 132.500 84.000 L 132.500 84.500 141.500 84.500 L 150.500 84.500 150.500 84.000 L 150.500 83.500 152.000 83.500 L 153.500 83.500 153.500 83.000 L 153.500 82.500 154.500 82.500 L 155.500 82.500 155.500 82.000 C 155.500 81.556,155.556 81.500,156.000 81.500 C 156.444 81.500,156.500 81.444,156.500 81.000 C 156.500 80.556,156.556 80.500,157.000 80.500 C 157.444 80.500,157.500 80.556,157.500 81.000 C 157.500 81.444,157.556 81.500,158.000 81.500 C 158.444 81.500,158.500 81.556,158.500 82.000 C 158.500 82.444,158.556 82.500,159.000 82.500 C 159.444 82.500,159.500 82.556,159.500 83.000 L 159.500 83.500 161.500 83.500 L 163.500 83.500 163.500 84.000 L 163.500 84.500 173.000 84.500 L 182.500 84.500 182.500 84.000 L 182.500 83.500 183.500 83.500 L 184.500 83.500 184.500 83.000 L 184.500 82.500 185.500 82.500 L 186.500 82.500 186.500 82.000 C 186.500 81.556,186.556 81.500,187.000 81.500 C 187.444 81.500,187.500 81.444,187.500 81.000 C 187.500 80.556,187.556 80.500,188.000 80.500 C 188.444 80.500,188.500 80.444,188.500 80.000 C 188.500 79.556,188.556 79.500,189.000 79.500 L 189.500 79.500 189.500 78.500 L 189.500 77.500 190.000 77.500 L 190.500 77.500 190.500 76.000 L 190.500 74.500 191.000 74.500 C 191.444 74.500,191.500 74.444,191.500 74.000 C 191.500 73.557,191.556 73.500,191.996 73.500 L 192.491 73.500 192.537 75.958 L 192.583 78.417 193.042 78.469 C 193.426 78.514,193.500 78.602,193.500 79.011 C 193.500 79.443,193.558 79.500,194.000 79.500 C 194.444 79.500,194.500 79.556,194.500 80.000 C 194.500 80.444,194.556 80.500,195.000 80.500 C 195.444 80.500,195.500 80.556,195.500 81.000 C 195.500 81.444,195.556 81.500,196.000 81.500 C 196.444 81.500,196.500 81.556,196.500 82.000 L 196.500 82.500 197.500 82.500 L 198.500 82.500 198.500 83.000 L 198.500 83.500 207.000 83.500 L 215.500 83.500 215.500 83.000 C 215.500 82.556,215.556 82.500,216.000 82.500 L 216.500 82.500 216.500 77.500 L 216.500 72.500 216.000 72.500 C 215.556 72.500,215.500 72.444,215.500 72.000 L 215.500 71.500 211.500 71.500 L 207.500 71.500 207.500 71.000 L 207.500 70.500 206.500 70.500 L 205.500 70.500 205.500 62.500 L 205.500 54.500 210.500 54.500 L 215.500 54.500 215.500 54.000 C 215.500 53.556,215.556 53.500,216.000 53.500 L 216.500 53.500 216.500 48.500 L 216.500 43.500 216.000 43.500 C 215.556 43.500,215.500 43.444,215.500 43.000 L 215.500 42.500 210.500 42.500 L 205.500 42.500 205.500 38.000 L 205.500 33.500 205.000 33.500 C 204.555 33.500,204.500 33.445,204.500 32.998 L 204.500 32.496 198.542 32.540 L 192.583 32.583 192.532 33.032 C 192.492 33.378,192.378 33.492,192.032 33.532 L 191.583 33.583 191.539 38.035 L 191.495 42.487 190.039 42.535 C 188.588 42.583,188.583 42.585,188.531 43.042 C 188.448 43.760,187.500 43.722,187.500 43.000 L 187.500 42.500 186.000 42.500 L 184.500 42.500 184.500 41.999 L 184.500 41.497 175.042 41.540 L 165.583 41.583 165.531 42.034 C 165.482 42.457,165.423 42.487,164.531 42.534 C 163.641 42.580,163.580 42.611,163.532 43.032 C 163.492 43.378,163.378 43.492,163.032 43.532 C 162.685 43.572,162.572 43.685,162.532 44.032 C 162.492 44.378,162.378 44.492,162.032 44.532 C 161.685 44.572,161.572 44.685,161.532 45.032 C 161.492 45.378,161.378 45.492,161.032 45.532 C 160.685 45.572,160.572 45.685,160.532 46.032 C 160.492 46.378,160.378 46.492,160.032 46.532 C 159.685 46.572,159.572 46.685,159.532 47.032 C 159.492 47.378,159.378 47.492,159.032 47.532 C 158.588 47.583,158.583 47.597,158.535 49.031 C 158.482 50.641,158.444 50.679,157.042 50.523 L 156.500 50.464 156.500 49.482 C 156.500 48.502,156.499 48.500,156.000 48.500 C 155.523 48.500,155.500 48.467,155.497 47.792 C 155.494 46.966,155.375 46.729,154.917 46.643 C 154.679 46.599,154.568 46.425,154.531 46.040 C 154.485 45.566,154.420 45.500,153.989 45.500 C 153.557 45.500,153.500 45.442,153.500 45.000 L 153.500 44.500 152.500 44.500 L 151.500 44.500 151.500 44.000 C 151.500 43.556,151.444 43.500,151.000 43.500 C 150.556 43.500,150.500 43.444,150.500 43.000 L 150.500 42.500 149.500 42.500 L 148.500 42.500 148.500 41.998 L 148.500 41.497 140.042 41.540 L 131.583 41.583 131.531 42.034 C 131.482 42.457,131.423 42.487,130.531 42.534 C 129.640 42.580,129.580 42.610,129.531 43.034 C 129.482 43.457,129.423 43.487,128.531 43.534 C 127.641 43.580,127.580 43.611,127.532 44.032 C 127.492 44.378,127.378 44.492,127.032 44.532 C 126.685 44.572,126.572 44.685,126.532 45.032 C 126.492 45.378,126.378 45.492,126.032 45.532 C 125.685 45.572,125.572 45.685,125.532 46.032 C 125.492 46.378,125.378 46.492,125.032 46.532 C 124.685 46.572,124.572 46.685,124.532 47.032 C 124.492 47.378,124.378 47.492,124.032 47.532 C 123.687 47.571,123.571 47.686,123.532 48.024 C 123.492 48.369,123.374 48.481,122.991 48.537 L 122.500 48.609 122.500 46.054 L 122.500 43.500 122.000 43.500 C 121.556 43.500,121.500 43.444,121.500 43.000 L 121.500 42.500 116.500 42.500 L 111.500 42.500 111.500 38.000 L 111.500 33.500 111.000 33.500 C 110.556 33.500,110.500 33.444,110.500 33.000 L 110.500 32.500 104.611 32.500 C 101.372 32.500,98.672 32.550,98.611 32.611 M286.379 37.177 C 287.500 38.329,290.142 41.058,292.250 43.241 C 294.358 45.425,296.721 47.870,297.500 48.675 C 300.562 51.838,300.291 51.492,299.926 51.761 C 299.676 51.946,298.977 52.000,296.839 52.000 C 293.951 52.000,293.829 51.974,293.000 51.177 C 292.023 50.237,288.856 47.358,287.490 46.167 C 286.912 45.663,286.319 45.137,286.172 45.000 C 286.026 44.862,285.196 44.113,284.328 43.334 C 283.460 42.555,282.547 41.702,282.300 41.438 C 281.665 40.762,280.662 40.592,280.138 41.072 C 279.925 41.268,279.295 41.838,278.739 42.339 C 278.184 42.840,277.096 43.820,276.323 44.518 C 274.785 45.904,273.257 47.257,272.776 47.660 C 272.607 47.801,271.781 48.567,270.940 49.362 C 270.100 50.157,269.076 51.075,268.665 51.402 L 267.917 51.997 265.062 51.998 C 261.609 52.000,261.383 51.898,262.432 50.807 C 262.790 50.435,263.271 49.930,263.500 49.686 C 264.453 48.673,272.609 40.264,275.000 37.831 C 278.074 34.703,277.390 35.009,281.212 35.050 L 284.341 35.083 286.379 37.177 M107.458 36.218 C 107.617 36.321,107.667 37.440,107.667 40.872 C 107.667 44.843,107.700 45.427,107.942 45.695 C 108.198 45.978,108.588 46.000,113.287 46.000 C 119.539 46.000,119.000 45.767,119.000 48.473 C 119.000 51.257,119.558 51.000,113.504 51.000 C 109.074 51.000,108.357 51.035,108.022 51.270 L 107.636 51.540 107.722 61.395 C 107.769 66.815,107.875 71.644,107.958 72.127 C 108.305 74.164,110.033 74.851,115.083 74.962 C 119.324 75.055,119.000 74.846,119.000 77.485 C 119.000 80.284,119.579 80.032,113.303 79.969 L 108.083 79.917 107.167 79.480 C 106.662 79.241,106.063 78.998,105.833 78.941 C 104.283 78.556,102.323 75.625,102.015 73.229 C 101.922 72.507,101.773 71.504,101.685 71.000 C 101.596 70.491,101.519 65.957,101.512 60.812 C 101.498 50.070,101.725 51.143,99.439 50.993 C 97.207 50.846,97.333 50.990,97.333 48.586 C 97.333 46.090,97.304 46.126,99.411 46.005 C 101.662 45.876,101.500 46.273,101.500 40.891 L 101.500 36.323 101.875 36.164 C 102.320 35.977,107.157 36.023,107.458 36.218 M201.458 36.218 C 201.617 36.321,201.667 37.440,201.667 40.872 C 201.667 44.843,201.700 45.427,201.942 45.695 C 202.198 45.978,202.588 46.000,207.287 46.000 C 213.539 46.000,213.000 45.767,213.000 48.473 C 213.000 51.257,213.558 51.000,207.504 51.000 C 203.074 51.000,202.357 51.035,202.022 51.270 L 201.636 51.540 201.722 61.395 C 201.769 66.815,201.875 71.644,201.958 72.127 C 202.305 74.164,204.033 74.851,209.083 74.962 C 213.324 75.055,213.000 74.846,213.000 77.485 C 213.000 80.284,213.579 80.032,207.303 79.969 L 202.083 79.917 201.167 79.480 C 200.662 79.241,200.063 78.998,199.833 78.941 C 198.283 78.556,196.323 75.625,196.015 73.229 C 195.922 72.507,195.773 71.504,195.685 71.000 C 195.596 70.491,195.519 65.957,195.512 60.812 C 195.498 50.070,195.725 51.143,193.439 50.993 C 191.207 50.846,191.333 50.990,191.333 48.586 C 191.333 46.090,191.304 46.126,193.411 46.005 C 195.662 45.876,195.500 46.273,195.500 40.891 L 195.500 36.323 195.875 36.164 C 196.320 35.977,201.157 36.023,201.458 36.218 M238.611 44.611 C 238.550 44.672,238.500 44.892,238.500 45.100 C 238.500 45.388,238.391 45.490,238.042 45.531 L 237.583 45.583 237.540 52.042 L 237.496 58.500 237.998 58.500 C 238.445 58.500,238.500 58.555,238.500 59.000 L 238.500 59.500 244.500 59.500 L 250.500 59.500 250.500 59.000 C 250.500 58.556,250.556 58.500,251.000 58.500 L 251.500 58.500 251.500 52.000 L 251.500 45.500 251.000 45.500 C 250.556 45.500,250.500 45.444,250.500 45.000 L 250.500 44.500 244.611 44.500 C 241.372 44.500,238.672 44.550,238.611 44.611 M145.269 45.533 C 145.738 45.770,146.370 46.018,146.672 46.085 C 146.975 46.151,147.522 46.422,147.887 46.686 C 148.251 46.950,148.651 47.167,148.775 47.167 C 148.899 47.167,149.000 47.236,149.000 47.320 C 149.000 47.404,149.266 47.637,149.592 47.838 C 150.113 48.160,151.304 49.465,152.464 50.985 C 152.674 51.259,152.930 51.727,153.034 52.026 C 153.138 52.324,153.398 52.826,153.612 53.141 C 153.825 53.456,154.000 53.932,154.000 54.199 C 154.000 54.466,154.152 55.019,154.338 55.426 C 154.993 56.865,155.346 63.254,154.800 63.800 C 154.648 63.952,151.686 64.000,142.485 64.000 C 128.064 64.000,129.553 63.714,129.890 66.417 C 130.050 67.696,130.228 68.426,130.478 68.833 C 130.676 69.154,130.911 69.686,131.001 70.015 C 131.091 70.344,131.353 70.831,131.582 71.098 C 131.812 71.365,132.000 71.633,132.000 71.694 C 132.000 71.950,134.131 73.888,134.667 74.119 C 134.987 74.258,135.448 74.512,135.690 74.684 C 135.931 74.856,136.623 75.066,137.226 75.151 C 137.829 75.237,138.384 75.345,138.459 75.392 C 138.535 75.438,139.269 75.594,140.090 75.738 C 141.651 76.011,141.536 76.019,144.917 75.417 C 145.650 75.286,146.667 75.135,147.176 75.082 C 147.685 75.028,148.474 74.812,148.928 74.601 C 149.383 74.391,150.044 74.164,150.399 74.098 C 150.753 74.031,151.332 73.794,151.685 73.572 C 153.380 72.502,153.833 72.944,153.833 75.668 C 153.833 78.070,153.604 78.485,152.027 78.936 C 151.508 79.084,150.971 79.299,150.833 79.412 C 150.474 79.710,149.535 80.000,148.931 80.000 C 148.645 80.000,148.134 80.149,147.794 80.331 C 146.283 81.141,136.664 81.310,135.223 80.552 C 134.841 80.351,134.241 80.135,133.890 80.071 C 133.186 79.944,132.392 79.582,132.038 79.228 C 131.912 79.103,131.702 79.000,131.570 79.000 C 130.915 79.000,127.843 76.388,126.667 74.830 C 126.006 73.956,125.000 72.270,125.000 72.038 C 125.000 71.922,124.822 71.544,124.604 71.199 C 124.386 70.854,124.153 70.162,124.086 69.661 C 124.018 69.160,123.784 68.212,123.565 67.554 C 122.875 65.481,123.052 59.076,123.827 58.083 C 123.898 57.992,124.009 57.433,124.074 56.843 C 124.142 56.214,124.350 55.488,124.576 55.093 C 124.787 54.721,125.011 54.200,125.073 53.936 C 125.134 53.671,125.368 53.214,125.592 52.920 C 125.817 52.626,126.000 52.306,126.000 52.208 C 126.000 51.986,127.459 50.130,128.275 49.314 C 129.075 48.514,130.980 47.000,131.186 47.000 C 131.271 47.000,131.620 46.818,131.962 46.595 C 132.304 46.372,132.879 46.135,133.240 46.070 C 133.602 46.004,134.164 45.793,134.490 45.601 C 135.800 44.828,143.773 44.778,145.269 45.533 M181.624 45.547 C 182.196 45.783,183.084 46.028,183.597 46.092 C 184.362 46.188,184.648 46.320,185.182 46.829 L 185.833 47.448 185.833 49.454 C 185.833 52.020,185.245 52.516,183.364 51.536 C 182.918 51.303,181.973 51.068,180.856 50.912 C 179.870 50.775,178.543 50.552,177.907 50.417 C 170.964 48.947,165.027 53.003,168.104 57.115 C 168.627 57.814,170.913 58.959,172.052 59.093 C 172.528 59.149,173.367 59.368,173.917 59.580 C 174.467 59.792,175.437 60.020,176.072 60.088 C 176.708 60.156,177.608 60.380,178.072 60.585 C 178.537 60.790,179.254 61.013,179.667 61.080 C 180.079 61.147,180.650 61.344,180.935 61.517 C 181.220 61.690,181.756 61.938,182.126 62.069 C 182.792 62.304,184.215 63.215,184.980 63.896 C 185.680 64.519,186.854 66.509,186.998 67.315 C 187.073 67.737,187.254 68.620,187.400 69.275 C 187.599 70.174,187.625 70.666,187.505 71.275 C 186.995 73.857,186.774 74.643,186.408 75.176 C 186.183 75.501,186.000 75.854,186.000 75.960 C 186.000 76.280,183.543 78.609,182.874 78.923 C 182.531 79.084,182.074 79.353,181.858 79.520 C 181.643 79.688,181.193 79.874,180.858 79.933 C 180.524 79.993,179.838 80.239,179.333 80.479 L 178.417 80.917 172.833 80.917 L 167.250 80.917 166.013 80.458 C 165.332 80.206,164.538 80.000,164.247 80.000 C 163.507 80.000,162.285 79.607,161.675 79.172 L 161.159 78.805 161.204 76.027 L 161.250 73.250 161.845 73.200 C 162.231 73.168,162.737 73.299,163.288 73.576 C 163.754 73.811,164.387 74.048,164.693 74.104 C 164.999 74.160,165.625 74.384,166.083 74.602 C 166.613 74.853,167.440 75.050,168.354 75.142 C 169.144 75.222,169.863 75.332,169.952 75.387 C 170.040 75.441,170.907 75.604,171.880 75.748 C 173.793 76.032,173.504 76.063,177.768 75.124 C 181.267 74.353,182.454 69.967,179.782 67.685 C 179.341 67.308,178.869 67.000,178.733 67.000 C 178.597 67.000,178.005 66.775,177.417 66.500 C 176.828 66.225,176.138 65.999,175.882 65.998 C 175.308 65.996,173.872 65.622,173.338 65.336 C 173.119 65.219,172.386 65.061,171.708 64.985 C 171.010 64.907,170.075 64.663,169.551 64.423 C 169.043 64.191,168.449 64.000,168.232 64.000 C 167.833 64.000,165.810 63.027,164.942 62.417 C 163.836 61.639,162.167 59.645,162.167 59.102 C 162.167 58.980,161.979 58.289,161.750 57.567 C 161.262 56.029,161.211 54.525,161.600 53.167 C 161.745 52.663,161.950 51.913,162.056 51.500 C 162.442 50.007,164.904 47.000,165.740 47.000 C 165.851 47.000,166.118 46.813,166.333 46.583 C 166.549 46.354,166.864 46.167,167.034 46.167 C 167.204 46.167,167.810 45.965,168.380 45.718 C 170.411 44.838,179.613 44.720,181.624 45.547 M247.630 48.259 C 248.100 48.589,248.219 55.305,247.762 55.762 C 247.395 56.129,241.632 56.108,241.262 55.738 C 241.041 55.517,241.000 54.938,241.000 52.000 C 241.000 49.062,241.041 48.483,241.262 48.262 C 241.647 47.877,247.081 47.875,247.630 48.259 M137.417 50.594 C 136.592 50.813,135.761 50.994,135.571 50.996 C 135.381 50.998,134.931 51.223,134.571 51.495 C 134.211 51.768,133.831 51.993,133.725 51.995 C 133.186 52.008,131.330 53.960,131.025 54.834 C 130.926 55.117,130.693 55.563,130.506 55.825 C 130.023 56.504,129.784 58.320,130.127 58.708 C 130.455 59.079,148.432 59.168,148.800 58.800 C 149.147 58.453,149.035 57.053,148.585 56.102 C 148.357 55.620,148.125 54.999,148.070 54.723 C 148.008 54.414,147.564 53.809,146.916 53.152 C 144.345 50.544,141.003 49.644,137.417 50.594 M120.500 54.989 C 120.500 55.398,120.426 55.486,120.042 55.531 L 119.583 55.583 119.540 63.042 L 119.497 70.500 119.998 70.500 C 120.445 70.500,120.500 70.555,120.500 71.000 L 120.500 71.500 117.000 71.500 L 113.500 71.500 113.500 71.000 L 113.500 70.500 112.500 70.500 L 111.500 70.500 111.500 62.500 L 111.500 54.500 116.000 54.500 L 120.500 54.500 120.500 54.989 M142.500 55.000 L 142.500 55.500 140.000 55.500 L 137.500 55.500 137.500 55.000 L 137.500 54.500 140.000 54.500 L 142.500 54.500 142.500 55.000 M180.500 55.000 L 180.500 55.500 184.500 55.500 L 188.500 55.500 188.500 55.000 L 188.500 54.500 190.000 54.500 L 191.500 54.500 191.500 60.500 L 191.500 66.500 191.000 66.500 L 190.500 66.500 190.500 65.000 L 190.500 63.500 190.000 63.500 L 189.500 63.500 189.500 62.500 L 189.500 61.500 189.000 61.500 C 188.556 61.500,188.500 61.444,188.500 61.000 C 188.500 60.556,188.444 60.500,188.000 60.500 C 187.556 60.500,187.500 60.444,187.500 60.000 L 187.500 59.500 186.500 59.500 L 185.500 59.500 185.500 59.000 L 185.500 58.500 184.500 58.500 L 183.500 58.500 183.500 58.000 L 183.500 57.500 182.000 57.500 L 180.500 57.500 180.500 57.000 L 180.500 56.500 178.500 56.500 L 176.500 56.500 176.500 56.000 L 176.500 55.500 175.000 55.500 L 173.500 55.500 173.500 55.000 L 173.500 54.500 177.000 54.500 L 180.500 54.500 180.500 55.000 M159.500 63.000 C 159.500 63.444,159.556 63.500,160.000 63.500 C 160.444 63.500,160.500 63.556,160.500 64.000 C 160.500 64.444,160.556 64.500,161.000 64.500 C 161.444 64.500,161.500 64.556,161.500 65.000 C 161.500 65.444,161.556 65.500,162.000 65.500 C 162.444 65.500,162.500 65.556,162.500 66.000 L 162.500 66.500 163.500 66.500 L 164.500 66.500 164.500 67.000 L 164.500 67.500 165.500 67.500 L 166.500 67.500 166.500 68.000 L 166.500 68.500 168.500 68.500 L 170.500 68.500 170.500 69.000 L 170.500 69.500 172.500 69.500 L 174.500 69.500 174.500 70.000 L 174.500 70.500 175.500 70.500 L 176.500 70.500 176.500 71.000 L 176.500 71.500 172.500 71.500 L 168.500 71.500 168.500 71.000 L 168.500 70.500 167.000 70.500 L 165.500 70.500 165.500 69.997 L 165.500 69.493 162.042 69.538 L 158.583 69.583 158.532 70.032 C 158.438 70.845,156.500 70.797,156.500 69.982 L 156.500 69.500 152.762 69.500 C 148.865 69.500,148.500 69.564,148.500 70.254 C 148.500 70.416,148.221 70.498,147.542 70.533 C 146.634 70.581,146.581 70.608,146.531 71.042 L 146.478 71.500 142.489 71.500 L 138.500 71.500 138.500 71.000 L 138.500 70.500 137.500 70.500 L 136.500 70.500 136.500 70.000 C 136.500 69.556,136.444 69.500,136.000 69.500 C 135.556 69.500,135.500 69.444,135.500 69.000 C 135.500 68.556,135.444 68.500,135.000 68.500 C 134.556 68.500,134.500 68.444,134.500 68.000 L 134.500 67.500 146.000 67.500 L 157.500 67.500 157.500 67.000 C 157.500 66.556,157.556 66.500,158.000 66.500 L 158.500 66.500 158.500 64.500 L 158.500 62.500 159.000 62.500 C 159.444 62.500,159.500 62.556,159.500 63.000 M238.611 68.611 C 238.550 68.672,238.500 68.892,238.500 69.100 C 238.500 69.388,238.391 69.490,238.042 69.531 L 237.583 69.583 237.540 76.042 L 237.496 82.500 237.998 82.500 C 238.445 82.500,238.500 82.555,238.500 83.000 L 238.500 83.500 244.500 83.500 L 250.500 83.500 250.500 83.000 C 250.500 82.556,250.556 82.500,251.000 82.500 L 251.500 82.500 251.500 76.000 L 251.500 69.500 251.000 69.500 C 250.556 69.500,250.500 69.444,250.500 69.000 L 250.500 68.500 244.611 68.500 C 241.372 68.500,238.672 68.550,238.611 68.611 M247.630 72.259 C 248.100 72.589,248.219 79.305,247.762 79.762 C 247.395 80.129,241.632 80.108,241.262 79.738 C 241.041 79.517,241.000 78.938,241.000 76.000 C 241.000 73.062,241.041 72.483,241.262 72.262 C 241.647 71.877,247.081 71.875,247.630 72.259 " stroke="none" fill="#040404" fill-rule="evenodd"></path></g></svg>